# xmcd CD database file
#
# Track frame offsets:
#	150
#	17495
#	36938
#	55203
#	77583
#	96108
#	111565
#	127998
#	147770
#	164738
#	192555
#	218693
#	233728
#	246965
#	265148
#
# Disc length: 3914 seconds
#
# Revision: 1
# Processed by: cddbd v1.5PL3 Copyright (c) Steve Scherf et al.
# Submitted via: CDex 1.60beta1
#
DISCID=d20f480f
DTITLE=Spiegel Willcox - Jazz Keeps You Young
DYEAR=1994
DGENRE=Jazz
TTITLE0=Ham and Eggs
TTITLE1=September Song
TTITLE2=My Gal Sal
TTITLE3=It's The Talk Of The Town
TTITLE4=I've Been Floating Down The Old Green River
TTITLE5=At Sundown
TTITLE6=When I Grow Too Old To Dream
TTITLE7=Somebody Else Is Taking My Place
TTITLE8=I Cried For You
TTITLE9=Somebody Stole My Gal
TTITLE10=Summertime
TTITLE11=June Night
TTITLE12=Just A Gigolo
TTITLE13=If I Had You
TTITLE14=Over The Waves
EXTD=YEAR: 1994
EXTT0=
EXTT1=
EXTT2=
EXTT3=
EXTT4=
EXTT5=
EXTT6=
EXTT7=
EXTT8=
EXTT9=
EXTT10=
EXTT11=
EXTT12=
EXTT13=
EXTT14=
PLAYORDER=
